<?xml version="1.0" encoding="utf-8"?>
<!-- Generator: Adobe Illustrator 26.5.0, SVG Export Plug-In . SVG Version: 6.00 Build 0)  -->
<svg version="1.1" id="Layer_1" xmlns="http://www.w3.org/2000/svg" xmlns:xlink="http://www.w3.org/1999/xlink" x="0px" y="0px"
	 viewBox="0 0 2193.9 215" style="enable-background:new 0 0 2193.9 215;" xml:space="preserve">
<style type="text/css">
	.st0{fill:#FF002B;}
</style>
<g>
	<g>
		<path d="M158.6,118.6v86.2h-31.7v-84C126.9,96.3,112,82,92.7,82C73,82,49.1,93,49.1,124.3v80.4H17.4V54h31.7v23.3
			C57.8,58.9,82,50.8,98.2,50.8C136.3,50.8,158.9,75.7,158.6,118.6z"/>
		<path d="M346.9,142.2H226.7c4.2,24.5,22.3,36.5,46.8,36.5c17.4,0,33.9-7.4,42.3-21.3L341,170c-13.2,25.2-40.4,38.1-69.1,38.1
			c-43.6,0-77.8-31.3-77.8-79.1s34.9-78.2,77.8-78.2c43,0,75.6,30.4,75.6,77.8C347.5,132.8,347.2,137.4,346.9,142.2z M315.8,116.7
			c-2.9-23.6-20.3-36.5-43.6-36.5s-40.7,11.6-45.2,36.5H315.8z"/>
		<path d="M476,204.9l-40.4-56.5l-40.7,56.5h-37.5l59.8-82.7L367.8,54h38.4l29.4,42.3L465.3,54h38.1L454,122.1l59.7,82.7H476
			L476,204.9L476,204.9z"/>
		<path d="M678.9,54v150.8h-31.7v-22.9c-8.7,18.4-32.9,26.2-48.8,26.2c-38.1,0-61-24.9-60.7-67.8V54h31.7v84
			c0,24.5,14.9,38.8,34.2,38.8c19.7,0,43.6-11,43.6-42V54H678.9z"/>
		<path d="M715,159h29.4c0,12,10.7,22.3,27.8,22.3c17.4,0,28.1-8.1,28.1-19.4c0-10-8.1-15.2-19.4-17.8l-20.3-4.8
			c-28.1-7.4-41-22-41-44.2c0-24.5,22.3-44.2,53.6-44.2c25.8,0,53.6,13.6,53.6,45.2h-30.4c0-11-11.3-18.4-22.6-18.4
			c-13.2,0-22.3,8.1-22.3,18.4c0,9.4,8.7,14.5,18.1,16.8l22.9,5.5c32.3,8.1,39.4,28.1,39.4,44.2c0,28.7-28.4,45.5-59.4,45.5
			C744.4,208.1,715.7,190.3,715,159z"/>
	</g>
	<g>
		<path class="st0" d="M1370.3,115.4v86.2h-32v-84c0-24.9-12.9-39.4-33.3-39.4c-21.6-0.3-35.9,15.2-37.8,37.5v85.9h-32v-84.3
			c0-24.9-12.9-39.1-31.7-39.1c-19.7,0-39.7,11.9-39.7,42.6v80.7h-31.7V50.8h31.7v23.9c6.8-16.8,26.5-27.1,47.2-27.1
			c21.6,0,40.4,11,49.1,30.4c13.6-25.5,37.1-30.4,52-30.4C1350,47.6,1370.3,72.4,1370.3,115.4z"/>
		<rect x="1607" y="50.8" class="st0" width="31.7" height="150.8"/>
		<rect x="1776.5" y="50.8" class="st0" width="31.7" height="150.8"/>
		<path class="st0" d="M1843.5,125.7c0-47.8,36.2-78.2,79.1-78.2c43,0,79.5,30.4,79.5,78.2s-36.5,79.1-79.5,79.1
			C1879.6,204.8,1843.5,173.5,1843.5,125.7z M1970.4,125.7c0-29.1-22-48.4-47.8-48.4s-47.5,19.4-47.5,48.4
			c0,29.4,21.6,49.1,47.5,49.1C1948.4,174.8,1970.4,155.1,1970.4,125.7z"/>
		<path class="st0" d="M2176.5,115.4v86.2h-31.7v-84c0-24.5-14.9-38.8-34.2-38.8c-19.7,0-43.6,11-43.6,42.3v80.4h-31.7V50.8h31.7
			v23.3c8.7-18.4,32.9-26.5,49.1-26.5C2154.2,47.6,2176.8,72.4,2176.5,115.4z"/>
		<path class="st0" d="M1497.5,47.6c-21.3,0-42.3,8.4-52.3,25.5V7h-31.7v194.6h31.7V179c10,17.1,32,25.8,52.3,25.8
			c40.7,0,74.9-31,74.9-78.8C1572.4,77.9,1538.5,47.6,1497.5,47.6z M1493.6,174.8c-25.2,0-48.1-18.7-48.1-49.1s24.9-48.1,48.1-48.1
			c26.2,0,46.8,19.7,46.8,48.1C1540.5,153.8,1519.8,174.8,1493.6,174.8z"/>
		<polygon class="st0" points="1717.2,50.8 1717.2,7 1685.6,7 1685.6,50.8 1685.6,77.3 1685.6,201.6 1717.2,201.6 1717.2,77.3 
			1749.5,77.3 1749.5,50.8 		"/>
		<rect x="1056.5" y="50.8" class="st0" width="31.7" height="150.8"/>
		<path class="st0" d="M892.5,125.7c0-47.8,36.2-78.2,79.1-78.2c43,0,79.5,30.4,79.5,78.2s-36.5,79.1-79.5,79.1
			C928.7,204.8,892.5,173.5,892.5,125.7z M1019.5,125.7c0-29.1-22-48.4-47.8-48.4s-47.5,19.4-47.5,48.4c0,29.4,21.6,49.1,47.5,49.1
			C997.5,174.8,1019.5,155.1,1019.5,125.7z"/>
	</g>
</g>
</svg>
